PathFileType	4	(X/Y/Z)	C:\Users\WrightLab\Desktop\Jo\P1_boxCal7.trc
DataRate	CameraRate	NumFrames	NumMarkers	Units	OrigDataRate	OrigDataStartFrame	OrigNumFrames
100.00	100.00	       24	19	mm	100.00	1	       609
Frame#	Time	Headset_Front			Headset_Back			Headset_Left			Headset_Right			Left_Shoulder			Right_Shoulder			Sternum			C7			Left Elbow			Right Elbow			Left Wrist			Right Wrist			Left ASIS			Right ASIS			S2			Left Knee			Right Knee			Left Ankle			Right Ankle			
		X1	Y1	Z1	X2	Y2	Z2	X3	Y3	Z3	X4	Y4	Z4	X5	Y5	Z5	X6	Y6	Z6	X7	Y7	Z7	X8	Y8	Z8	X9	Y9	Z9	X10	Y10	Z10	X11	Y11	Z11	X12	Y12	Z12	X13	Y13	Z13	X14	Y14	Z14	X15	Y15	Z15	X16	Y16	Z16	X17	Y17	Z17	X18	Y18	Z18	X19	Y19	Z19	

1	0.000																-404.53595	1235.57507	-1615.77869													112.23112	723.67560	-1605.61475													-75.96629	407.31442	-1658.81384	-409.32764	441.61996	-1531.88538				-425.28564	68.88293	-1604.01428	
2	0.010																-405.12753	1235.54614	-1614.13147													110.97282	723.46539	-1602.69080													-76.60475	407.04398	-1656.77490	-410.18369	441.87564	-1532.28662				-427.42896	69.80071	-1595.78711	
3	0.020																-405.50546	1235.77954	-1613.49097													109.36626	723.66974	-1598.99023													-77.23148	407.21106	-1654.75183	-411.80487	441.01315	-1534.33521				-430.83850	69.32255	-1584.17798	
4	0.030																-406.36496	1234.79651	-1609.64319													108.78694	723.87433	-1596.39209													-78.67353	405.90741	-1651.10938	-413.46347	440.22873	-1535.66565				-433.71994	67.63141	-1573.50720	
5	0.040																-407.55551	1235.14795	-1608.71252													107.63268	723.69751	-1592.92859													-78.71548	405.53345	-1649.28845	-416.40311	440.35941	-1532.44775				-436.69800	65.83351	-1563.30042	
6	0.050													-30.01964	1232.58118	-1603.54797	-408.07809	1234.06128	-1605.32336													106.85687	722.75140	-1588.17395													-80.15867	405.30759	-1646.46802	-417.04977	439.26321	-1533.26599				-438.80118	65.37256	-1558.13013	
7	0.060													-31.51299	1232.79724	-1600.47986	-409.84482	1233.58203	-1602.42822													105.05302	723.24176	-1583.64148													-80.12937	405.59842	-1644.75793	-418.30582	439.43857	-1531.78101				-442.61923	65.28803	-1543.23828	
8	0.070													-32.42376	1233.26501	-1597.98889	-410.63028	1233.88403	-1601.83582													104.66716	723.77521	-1580.86072													-80.81018	404.78711	-1641.89587	-421.42801	442.77914	-1521.66357				-446.30078	64.92825	-1532.01392	
9	0.080													-34.37380	1233.22400	-1594.17419	-411.90717	1234.25989	-1601.02612													103.49025	723.74847	-1576.74023													-81.26994	404.80515	-1639.85571	-422.25458	441.17819	-1525.80859				-448.38065	63.48698	-1526.85242	
10	0.090													-36.15486	1233.37952	-1590.92944	-413.49481	1233.03198	-1596.79138													103.16135	724.90662	-1575.06592													-82.34644	404.59070	-1637.04028	-424.88998	438.80106	-1530.24023				-452.72586	63.29866	-1514.78870	
11	0.100													-37.45987	1232.51550	-1585.56958	-414.95444	1232.82275	-1594.68835													101.17634	724.39410	-1568.69006													-83.54619	404.43643	-1634.08081	-428.13724	439.29868	-1526.62000				-456.81284	63.76202	-1506.60046	
12	0.110													-38.89742	1232.16309	-1581.19470	-416.64304	1232.52612	-1592.20715													99.12004	724.08624	-1561.92065													-83.92876	404.08932	-1631.92920	-429.53464	440.89890	-1523.55273				-461.95984	64.12627	-1496.40662	
13	0.120													-41.59848	1232.60193	-1578.53137	-418.25485	1231.96777	-1589.36084													98.51358	724.55133	-1558.39783													-84.61031	404.19583	-1628.91797	-431.94287	441.03342	-1516.46521				-464.40732	62.08186	-1490.24890	
14	0.130													-42.90865	1233.05981	-1576.05005	-420.89645	1232.01306	-1587.17627													97.83894	725.09918	-1554.78650													-85.55538	402.91867	-1626.10278	-434.98477	439.41232	-1517.90637				-467.99802	64.62605	-1478.78235	
15	0.140													-45.74069	1233.49805	-1573.34631	-422.27277	1230.95129	-1583.36230													95.82374	725.53973	-1549.47668													-85.69320	403.31308	-1624.21533	-437.48468	436.78000	-1521.49207				-471.49130	65.86567	-1468.25073	
16	0.150													-47.48153	1233.15247	-1568.89929	-424.37692	1230.71167	-1580.86853													94.38924	725.34271	-1544.23267													-86.66825	402.80994	-1622.19434	-441.14566	438.85577	-1514.14893				-475.92218	68.79567	-1455.23425	
17	0.160													-49.63181	1232.29773	-1563.30859	-426.79803	1229.90833	-1577.09607													93.10485	725.30768	-1539.33667													-88.01412	403.11917	-1619.20264	-442.34256	439.22632	-1512.42371				-478.31110	67.33615	-1454.30127	
18	0.170													-52.57170	1231.93433	-1558.72241	-428.99976	1230.05713	-1575.33374													91.58443	725.96790	-1535.45715													-88.88803	402.45618	-1617.43787	-445.73831	440.17276	-1500.09741				-482.60992	67.44821	-1446.42151	
19	0.180													-54.72580	1232.54688	-1556.40881	-431.88354	1229.27271	-1571.26501													89.55406	726.33325	-1531.07544													-89.84272	402.70294	-1614.97375	-447.46417	438.14044	-1504.25476				-486.81567	69.66575	-1437.59998	
20	0.190													-57.77313	1232.04456	-1551.37866	-434.20581	1228.29211	-1567.17261													88.11094	726.35114	-1526.17297													-90.64317	401.69818	-1611.48767	-451.29037	438.97736	-1501.54150				-488.58359	69.26646	-1433.70593	
21	0.200													-59.75829	1231.23792	-1545.74573	-437.22226	1227.79272	-1563.65759													86.35149	725.15210	-1519.29688				-176.83781	829.55640	-1440.44092							-91.06236	402.16394	-1609.50000	-453.45837	438.00763	-1499.85388				-492.02234	71.65134	-1422.06653	
22	0.210													-63.46705	1230.86218	-1540.95264	-439.36850	1227.39905	-1561.31213													83.98949	725.78876	-1515.42627				-179.54564	829.10114	-1435.70801							-93.32737	401.49332	-1605.07397	-456.43066	436.99780	-1491.75085				-494.61932	72.86921	-1418.42212	
23	0.220													-65.96484	1231.50073	-1538.52441	-442.63327	1226.58594	-1557.05298													82.94603	726.53467	-1511.12817				-182.19275	828.37482	-1430.57190							-94.40742	401.01889	-1602.44617	-458.09229	438.26157	-1485.88782				-498.51370	71.72152	-1415.63245	
24	0.230													-69.34634	1231.03796	-1533.26892	-445.33997	1225.55078	-1552.88916													79.55733	726.02753	-1504.62427				-184.04100	828.10126	-1426.01440							-96.03092	400.33664	-1598.65015	-460.39270	439.07858	-1479.43213				-502.82764	72.08867	-1409.63025	
